<?xml version="1.0" encoding="UTF-8" standalone="no"?>
<!DOCTYPE svg PUBLIC "-//W3C//DTD SVG 20010904//EN" "http://www.w3.org/TR/2001/REC-SVG-20010904/DTD/svg10.dtd">
<svg xmlns="http://www.w3.org/2000/svg" xmlns:xml="http://www.w3.org/XML/1998/namespace" xml:space="preserve" width="64" height="64" overflow="visible" viewBox="0 0 256 256">
  <path d="M44 15.5c-9.374 0-17 7.626-17 17v200c0 9.374 7.626 17 17 17h176c9.375 0 17-7.626 17-17v-200c0-9.374-7.625-17-17-17H44z" opacity=".2"/>
  <path d="M42 13.5c-9.374 0-17 7.626-17 17v200c0 9.374 7.626 17 17 17h176c9.375 0 17-7.626 17-17v-200c0-9.374-7.625-17-17-17H42z" opacity=".2"/>
  <path d="M40 12.5c-9.374 0-17 7.626-17 17v200c0 9.374 7.626 17 17 17h176c9.375 0 17-7.626 17-17v-200c0-9.374-7.625-17-17-17H40z" opacity=".2"/>
  <linearGradient id="a" x1="128.9995" x2="128.9995" y1="11" y2="245.0005" gradientUnits="userSpaceOnUse">
    <stop offset="0" stop-color="#494949"/>
    <stop offset="1"/>
  </linearGradient>
  <path fill="url(#a)" d="M41 11c-9.374 0-17 7.626-17 17v200c0 9.374 7.626 17 17 17h176c9.375 0 17-7.626 17-17V28c0-9.374-7.625-17-17-17H41z"/>
  <path fill="#FFF" d="M28 228c0 6.627 5.373 12 12 12h176c6.627 0 12-5.373 12-12V28c0-6.627-5.373-12-12-12H40c-6.627 0-12 5.373-12 12v200z"/>
  <linearGradient id="b" x1="29.0532" x2="226.9471" y1="29.0532" y2="226.9471" gradientUnits="userSpaceOnUse">
    <stop offset="0" stop-color="#fff"/>
    <stop offset="1" stop-color="#dadada"/>
  </linearGradient>
  <path fill="url(#b)" d="M40 21c-3.86 0-7 3.14-7 7v200c0 3.859 3.14 7 7 7h176c3.859 0 7-3.141 7-7V28c0-3.86-3.141-7-7-7H40z"/>
  <path d="M108.139 43.324c-1.789.819-2.944 2.618-2.944 4.584l.172 1.303s28.258 105.463 29.143 108.764c-4.013-1.196-8.281-1.975-12.749-2.266-8.533-.554-16.573.702-22.057 3.445.044-.021.102-.052.147-.071-10.88 4.466-19.922 13.87-23.036 23.96-.772 2.502-1.164 5.011-1.164 7.455 0 4.198 1.18 8.19 3.413 11.546 4.728 7.788 12.795 13.416 22.696 15.813 9.539 2.31 20.407 1.526 30.602-2.206.067-.026.146-.056.146-.056 12.799-5.331 21.341-12.634 24.766-21.142 1.099-2.733 1.656-5.554 1.656-8.382 0-3.06-.663-6.192-1.962-9.312-.02-.073-20.335-75.887-21.306-79.511 2.24.896 5.721 2.287 5.721 2.287 7.285 2.806 15.542 5.987 22.465 10.881 7.6 5.373 12.373 12.013 14.593 20.3.672 2.506 3.109 4.085 5.671 3.674s4.383-2.675 4.235-5.266c-1.615-28.262-18.805-39.433-37.003-51.26-12.903-8.389-26.238-17.057-36.934-32.791-1.389-2.041-4.026-2.777-6.271-1.749z" opacity=".2"/>
  <path d="M106.139 42.324c-1.789.819-2.944 2.618-2.944 4.584l.172 1.303s28.258 105.463 29.143 108.764c-4.013-1.196-8.281-1.975-12.749-2.266-8.533-.554-16.573.702-22.057 3.445.044-.021.102-.052.147-.071-10.88 4.466-19.922 13.87-23.036 23.96-.772 2.502-1.164 5.011-1.164 7.455 0 4.198 1.18 8.19 3.413 11.546 4.728 7.788 12.795 13.416 22.696 15.813 9.539 2.31 20.407 1.526 30.602-2.206.067-.026.146-.056.146-.056 12.799-5.331 21.341-12.634 24.766-21.142 1.099-2.733 1.656-5.554 1.656-8.382 0-3.06-.663-6.192-1.962-9.312-.02-.073-20.335-75.887-21.306-79.511 2.24.896 5.721 2.287 5.721 2.287 7.285 2.806 15.542 5.987 22.465 10.881 7.6 5.373 12.373 12.013 14.593 20.3.672 2.506 3.109 4.085 5.671 3.674s4.383-2.675 4.235-5.266c-1.615-28.262-18.805-39.433-37.003-51.259-12.903-8.389-26.238-17.057-36.934-32.791-1.389-2.042-4.026-2.778-6.271-1.75z" opacity=".2"/>
  <linearGradient id="c" x1="128.0024" x2="128.0024" y1="39.8628" y2="216.1587" gradientUnits="userSpaceOnUse">
    <stop offset="0" stop-color="#033"/>
    <stop offset="1" stop-color="#060"/>
  </linearGradient>
  <path fill="url(#c)" d="M104.139 40.324c-1.789.819-2.944 2.618-2.944 4.584l.172 1.303s28.258 105.463 29.143 108.764c-4.013-1.196-8.281-1.975-12.749-2.266-8.533-.554-16.573.702-22.057 3.445.044-.021.102-.052.147-.071-10.88 4.466-19.922 13.87-23.036 23.96-.772 2.502-1.164 5.011-1.164 7.455 0 4.198 1.18 8.19 3.413 11.546 4.728 7.788 12.795 13.416 22.696 15.813 9.539 2.31 20.407 1.526 30.603-2.206.067-.026.145-.056.145-.056 12.799-5.331 21.341-12.634 24.766-21.142 1.099-2.733 1.656-5.554 1.656-8.382 0-3.06-.663-6.192-1.962-9.312-.02-.073-20.335-75.887-21.306-79.511 2.24.896 5.721 2.287 5.721 2.287 7.285 2.806 15.542 5.987 22.465 10.881 7.6 5.373 12.373 12.013 14.593 20.3.672 2.505 3.109 4.084 5.671 3.673s4.383-2.675 4.235-5.266c-1.615-28.262-18.805-39.433-37.003-51.259-12.903-8.389-26.238-17.057-36.934-32.791-1.389-2.041-4.026-2.777-6.271-1.749z"/>
  <linearGradient id="d" x1="127.7437" x2="127.7436" y1="211.125" y2="44.9092" gradientUnits="userSpaceOnUse">
    <stop offset="0" stop-color="#093"/>
    <stop offset="1" stop-color="#0f0"/>
  </linearGradient>
  <path fill="url(#d)" d="M123.575 84.502c11.822 9.323 47.372 11.643 55.481 41.911-2.525-44.232-46.158-41.911-73.072-81.504l31.825 118.777c-11.178-7.004-30.468-7.838-40.105-3.02-15.722 6.338-26.46 23.965-18.682 35.607 8.389 13.984 28.279 18.621 47.352 11.643 16.753-6.98 27.621-18.625 21.538-32.586l-24.337-90.828z"/>
  <path fill="#FFF" d="M139.771 163.16c.046.174.067.35.067.525 0 .633-.297 1.242-.822 1.631-.671.496-1.576.529-2.282.088-10.991-6.887-29.518-7.227-38.122-2.924-.048.023-.098.047-.148.066-9.091 3.666-16.605 11.352-19.145 19.582-1.053 3.412-1.667 8.441 1.391 13.018.019.027.036.057.053.084 3.755 6.26 10.292 10.789 18.408 12.754 8.182 1.98 17.581 1.283 26.468-1.961 10.769-4.494 18.163-10.605 20.82-17.211.753-1.869 1.129-3.785 1.129-5.734 0-2.273-.512-4.592-1.535-6.938-.039-.092-.072-.188-.099-.285l-24.338-90.828c-.046-.175-.069-.351-.069-.525 0-.671.333-1.313.913-1.694.73-.481 1.686-.44 2.372.101 3.251 2.564 8.623 4.633 14.84 7.028 7.671 2.956 16.366 6.306 24.005 11.706 4.133 2.922 7.557 6.179 10.317 9.806-1.766-4.63-4.297-8.79-7.664-12.643-6.072-6.95-14.34-12.323-23.093-18.012-10.614-6.898-22.392-14.569-32.65-26.547 4.444 16.586 29.184 108.913 29.184 108.913z"/>
  <linearGradient id="e" x1="126.2256" x2="126.2256" y1="55.0059" y2="283.1829" gradientUnits="userSpaceOnUse">
    <stop offset="0" stop-color="#fff"/>
    <stop offset=".382" stop-color="#0f0"/>
    <stop offset=".4331" stop-color="#00fb02"/>
    <stop offset=".4874" stop-color="#00ee09"/>
    <stop offset=".5432" stop-color="#00d913"/>
    <stop offset=".5997" stop-color="#0b2"/>
    <stop offset=".6517" stop-color="#093"/>
    <stop offset=".8258" stop-color="#060"/>
  </linearGradient>
  <path fill="url(#e)" d="M139.771 163.16c.046.174.067.35.067.525 0 .633-.297 1.242-.822 1.631-.671.496-1.576.529-2.282.088-10.991-6.887-29.518-7.227-38.122-2.924-.048.023-.098.047-.148.066-9.091 3.666-16.605 11.352-19.145 19.582-1.053 3.412-1.667 8.441 1.391 13.018.019.027.036.057.053.084 3.755 6.26 10.292 10.789 18.408 12.754 8.182 1.98 17.581 1.283 26.468-1.961 10.769-4.494 18.163-10.605 20.82-17.211.753-1.869 1.129-3.785 1.129-5.734 0-2.273-.512-4.592-1.535-6.938-.039-.092-.072-.188-.099-.285l-24.338-90.828c-.046-.175-.069-.351-.069-.525 0-.671.333-1.313.913-1.694.73-.481 1.686-.44 2.372.101 3.251 2.564 8.623 4.633 14.84 7.028 7.671 2.956 16.366 6.306 24.005 11.706 4.133 2.922 7.557 6.179 10.317 9.806-1.766-4.63-4.297-8.79-7.664-12.643-6.072-6.95-14.34-12.323-23.093-18.012-10.614-6.898-22.392-14.569-32.65-26.547 4.444 16.586 29.184 108.913 29.184 108.913z"/>
  <radialGradient id="f" cx="100.5962" cy="124.4897" r="86.1955" fx="100.5962" fy="124.4897" gradientTransform="matrix(.826 -.0247 -.0247 .738 18.1722 45.3572)" gradientUnits="userSpaceOnUse">
    <stop offset=".3933" stop-color="#fff"/>
    <stop offset=".7303" stop-color="#00e100"/>
  </radialGradient>
  <path fill="url(#f)" d="M87.186 176.529c1.399 5.353 10.628 7.574 20.611 4.963 9.983-2.61 16.941-9.066 15.541-14.42-1.4-5.353-10.629-7.574-20.611-4.964-9.984 2.612-16.942 9.068-15.541 14.421z"/>
  <path fill="none" d="M0 0h256v256H0z"/>
</svg>